<svg width="34" height="34" viewBox="0 0 34 34" fill="none" xmlns="http://www.w3.org/2000/svg">
<path d="M26.0907 26.0909C20.0434 32.1382 11.09 33.1548 5.25195 28.7477C5.61014 29.2219 5.99942 29.6782 6.42936 30.1081C12.1502 35.8289 22.0891 35.1664 28.6279 28.6281C35.1661 22.0893 35.8287 12.1504 30.1073 6.42961C29.6779 5.99966 29.2217 5.61038 28.7475 5.2522C33.1545 11.0902 32.138 20.0436 26.0907 26.0909Z" fill="#4C9A54"/>
<path d="M27.5712 3.89266C33.2926 9.61406 32.63 19.5524 26.0912 26.0912C19.5524 32.63 9.61406 33.2926 3.89266 27.5712C-1.82875 21.8498 -1.16619 11.9115 5.37264 5.37264C11.9115 -1.16619 21.8498 -1.82875 27.5712 3.89266Z" fill="#58BE62"/>
<path d="M13.6368 29.0721C10.5016 29.0721 7.64209 27.9383 5.58327 25.8801C0.803674 21.1005 1.46742 12.6595 7.06325 7.06429C10.0322 4.09476 13.9549 2.39233 17.8256 2.39233C20.9607 2.39233 23.8202 3.52609 25.8791 5.58431C30.6586 10.3639 29.9949 18.8049 24.3991 24.4001C21.4307 27.3685 17.508 29.0721 13.6368 29.0721Z" fill="#27752F"/>
<path d="M26.4962 25.651L29.0412 28.1959C29.3169 27.9029 29.5829 27.6045 29.8359 27.2996L27.2951 24.7588C27.0422 25.0632 26.7713 25.358 26.4962 25.651Z" fill="#27752F"/>
<path d="M24.2831 27.6662L26.8293 30.2124C27.1432 29.969 27.4506 29.7119 27.7526 29.4446L25.2106 26.9026C24.9074 27.1699 24.5977 27.4222 24.2831 27.6662Z" fill="#27752F"/>
<path d="M28.3798 23.3056L30.9242 25.8499C31.155 25.5091 31.3738 25.1635 31.5789 24.8137L29.04 22.2747C28.8343 22.6245 28.61 22.9665 28.3798 23.3056Z" fill="#27752F"/>
<path d="M29.901 20.5988L32.4484 23.1455C32.6284 22.7497 32.791 22.3496 32.9399 21.9466L30.3961 19.4028C30.2472 19.8053 30.0804 20.2035 29.901 20.5988Z" fill="#27752F"/>
<path d="M21.7267 29.3382L24.2717 31.8831C24.6323 31.6882 24.9899 31.4837 25.3415 31.2613L22.7947 28.7151C22.4431 28.9369 22.0873 29.1432 21.7267 29.3382Z" fill="#27752F"/>
<path d="M18.7745 30.6143L21.3189 33.1586C21.7333 33.0223 22.1465 32.8728 22.5555 32.7036L20.0117 30.1604C19.6027 30.329 19.1901 30.4785 18.7745 30.6143Z" fill="#27752F"/>
<path d="M14.5122 31.426L17.059 33.9728C17.5678 33.9441 18.0791 33.8908 18.5904 33.8131L16.0424 31.2651C15.5312 31.3423 15.0211 31.3979 14.5122 31.426Z" fill="#27752F"/>
<path d="M9.80798 30.9497L12.3613 33.5031C13.043 33.686 13.7403 33.8182 14.4483 33.8995L11.8961 31.3468C11.1875 31.2642 10.4903 31.1339 9.80798 30.9497Z" fill="#27752F"/>
<path d="M31.1436 16.7674L33.6862 19.31C33.7831 18.8208 33.8578 18.3311 33.9092 17.842L31.3637 15.2964C31.3122 15.7867 31.2399 16.2771 31.1436 16.7674Z" fill="#27752F"/>
<path d="M33.975 15.3707C33.9409 14.7255 33.8698 14.0862 33.7538 13.4584L31.1938 10.8984C31.3128 11.5353 31.4043 12.1793 31.4384 12.8341L33.975 15.3707Z" fill="#27752F"/>
<path d="M15.6757 24.0664C13.8018 24.0013 12.4054 23.5716 11.4865 22.7773C10.5676 21.9701 10.0721 20.7331 10 19.0664L14.1351 18.6172C14.1532 19.6198 14.3153 20.3424 14.6216 20.7852C14.9279 21.2148 15.3964 21.4297 16.027 21.4297C16.8378 21.4297 17.2432 21.0456 17.2432 20.2773C17.2432 19.6654 17.045 19.1445 16.6486 18.7148C16.2703 18.2721 15.6757 17.7904 14.8649 17.2695L12.9459 16.0781C11.973 15.4531 11.2342 14.8411 10.7297 14.2422C10.2432 13.6432 10 12.8815 10 11.957C10 10.7331 10.4775 9.76953 11.4324 9.06641C12.4054 8.35026 13.7387 7.94661 15.4324 7.85547V6H16.8108V7.83594C18.6667 7.91406 19.9099 8.38281 20.5405 9.24219C21.1892 10.0885 21.5405 11.1107 21.5946 12.3086L17.4054 12.6797C17.3694 11.8464 17.2613 11.2539 17.0811 10.9023C16.9189 10.5378 16.5586 10.362 16 10.375C15.5676 10.375 15.2342 10.5052 15 10.7656C14.7838 11.013 14.6757 11.293 14.6757 11.6055C14.6757 12.1654 14.8468 12.6276 15.1892 12.9922C15.5496 13.3437 16.0811 13.7474 16.7838 14.2031L18.6216 15.3555C19.7027 16.0716 20.5315 16.7943 21.1081 17.5234C21.7027 18.2396 22 19.099 22 20.1016C22 21.1562 21.5495 22.0547 20.6486 22.7969C19.7658 23.526 18.5676 23.9427 17.0541 24.0469V26H15.6757V24.0664Z" fill="#58BE62"/>
</svg>
