<svg width="34" height="34" viewBox="0 0 34 34" fill="none" xmlns="http://www.w3.org/2000/svg">
<path d="M26.0907 26.0909C20.0434 32.1382 11.09 33.1548 5.25197 28.7477C5.61015 29.2219 5.99943 29.6782 6.42938 30.1081C12.1502 35.8289 22.0891 35.1664 28.6279 28.6281C35.1661 22.0893 35.8287 12.1504 30.1073 6.42961C29.6779 5.99966 29.2217 5.61038 28.7475 5.2522C33.1546 11.0902 32.138 20.0436 26.0907 26.0909Z" fill="#6E29FF"/>
<path d="M27.5712 3.89266C33.2926 9.61406 32.63 19.5524 26.0912 26.0912C19.5524 32.63 9.61406 33.2926 3.89266 27.5712C-1.82875 21.8498 -1.16619 11.9115 5.37264 5.37264C11.9115 -1.16619 21.8498 -1.82875 27.5712 3.89266Z" fill="#9969FF"/>
<path d="M13.6368 29.0721C10.5016 29.0721 7.6421 27.9383 5.58328 25.8801C0.803689 21.1005 1.46744 12.6595 7.06327 7.06429C10.0322 4.09476 13.9549 2.39233 17.8256 2.39233C20.9607 2.39233 23.8203 3.52609 25.8791 5.58431C30.6587 10.3639 29.9949 18.8049 24.3991 24.4001C21.4308 27.3685 17.5081 29.0721 13.6368 29.0721Z" fill="#DAC9FF"/>
<path d="M14.3339 24.2859C12.3124 24.2859 10.4687 23.5548 9.14125 22.2277C6.05952 19.1459 6.48749 13.7033 10.0955 10.0956C12.0098 8.18095 14.539 7.08325 17.0347 7.08325C19.0562 7.08325 20.8999 7.81428 22.2273 9.14138C25.3091 12.2232 24.8811 17.6658 21.2731 21.2735C19.3592 23.1874 16.83 24.2859 14.3339 24.2859Z" fill="#9969FF"/>
<path d="M26.4962 25.651L29.0412 28.1959C29.3169 27.9029 29.583 27.6045 29.8359 27.2996L27.2951 24.7588C27.0422 25.0632 26.7713 25.358 26.4962 25.651Z" fill="#9969FF"/>
<path d="M24.2831 27.6662L26.8293 30.2124C27.1432 29.969 27.4506 29.7119 27.7526 29.4446L25.2106 26.9026C24.9074 27.1699 24.5977 27.4222 24.2831 27.6662Z" fill="#9969FF"/>
<path d="M28.3798 23.3056L30.9242 25.8499C31.155 25.5091 31.3738 25.1635 31.5789 24.8137L29.04 22.2747C28.8343 22.6245 28.61 22.9665 28.3798 23.3056Z" fill="#9969FF"/>
<path d="M29.901 20.5988L32.4484 23.1455C32.6284 22.7497 32.791 22.3496 32.9399 21.9466L30.3961 19.4028C30.2472 19.8053 30.0804 20.2035 29.901 20.5988Z" fill="#9969FF"/>
<path d="M21.7267 29.3382L24.2717 31.8831C24.6323 31.6882 24.9899 31.4837 25.3415 31.2613L22.7947 28.7151C22.4431 28.9369 22.0873 29.1432 21.7267 29.3382Z" fill="#9969FF"/>
<path d="M18.7746 30.6143L21.3189 33.1586C21.7333 33.0223 22.1465 32.8728 22.5555 32.7036L20.0118 30.1604C19.6027 30.329 19.1901 30.4785 18.7746 30.6143Z" fill="#9969FF"/>
<path d="M14.5122 31.426L17.059 33.9728C17.5678 33.9441 18.0791 33.8908 18.5904 33.8131L16.0424 31.2651C15.5311 31.3423 15.0211 31.3979 14.5122 31.426Z" fill="#9969FF"/>
<path d="M9.808 30.9497L12.3613 33.5031C13.043 33.686 13.7403 33.8182 14.4483 33.8995L11.8961 31.3468C11.1875 31.2642 10.4903 31.1339 9.808 30.9497Z" fill="#9969FF"/>
<path d="M31.1436 16.7674L33.6862 19.31C33.7831 18.8208 33.8578 18.3311 33.9092 17.842L31.3637 15.2964C31.3122 15.7867 31.2399 16.2771 31.1436 16.7674Z" fill="#9969FF"/>
<path d="M33.975 15.3707C33.9409 14.7255 33.8698 14.0862 33.7538 13.4584L31.1938 10.8984C31.3128 11.5353 31.4043 12.1793 31.4384 12.8341L33.975 15.3707Z" fill="#9969FF"/>
</svg>
